<svg width="174" height="33" viewBox="0 0 174 33" fill="none" xmlns="http://www.w3.org/2000/svg">
<path fill-rule="evenodd" clip-rule="evenodd" d="M37.7095 7.9655V25.1157L41.4479 28.6108H46.8118L50.3877 25.1157V7.9655L46.7305 4.47043H41.5292L37.7095 7.9655ZM42.9921 9.10343H45.1051V24.0591H42.9921V9.10343Z" fill="#FCC139"/>
<path d="M26.4128 28.6921V4.47044H31.6142V24.1404H36.4904V28.6921H26.4128ZM52.2568 7.96551L56.0766 4.47044H61.4404L64.935 7.96551V13.8177H59.6525V9.10345H57.5394V24.0591H59.6525V18.2882H64.935V25.1158L61.4404 28.6108H55.9953L52.2568 25.1158V7.96551ZM66.723 28.6108V4.38916H71.9243V14.1429H72.0056L75.3376 4.47044H80.6202L76.2316 15.3621V15.6059L81.4329 28.6108H76.2316L72.0056 18.0443H71.843V28.6108H66.723Z" fill="#FCC139"/>
<path fill-rule="evenodd" clip-rule="evenodd" d="M12.1093 4.47043L12.2718 28.6921H21.496L25.1938 25.3596V18.8165L22.1868 16.5406L24.6655 14.1428V7.84358L21.496 4.47043H12.1093ZM17.3918 9.42856V14.1428H19.6674V9.42856H17.3918ZM17.3918 18.9384V24.1404H19.6674V18.9384H17.3918ZM82.4082 4.47043L82.5707 28.6921H91.7949L95.4927 25.3596V18.8165L92.4857 16.5406L94.9645 14.1428V7.84358L91.7949 4.47043H82.4082ZM87.6908 9.42856V14.1428H89.9663V9.42856H87.6908ZM87.6908 18.9384V24.1404H89.9663V18.9384H87.6908Z" fill="#FCC139"/>
<path d="M96.9556 25.1157V4.55171H102.157V24.1404H104.351V4.55171H109.634V25.1157L106.058 28.6921H100.775L96.9556 25.1157ZM111.503 8.20934L115.16 4.55171H120.524L124.019 8.20934V12.4359H118.817V9.34728H116.704V14.1428L120.605 14.5492L124.019 17.8818V25.197L120.524 28.6921H115.16L111.503 25.197V20.9704H116.623V24.0591H118.736V19.1823L114.835 18.8571L111.503 15.5246V8.20934ZM125.075 9.18471V4.47043H136.372V9.18471H133.365V28.6921H128.001V9.18471H125.075ZM137.672 28.6921V4.47043H147.587V9.34728H142.792V13.8177H146.612V18.2069H142.955V24.2217H147.587V28.6921H137.672Z" fill="#FCC139"/>
<path fill-rule="evenodd" clip-rule="evenodd" d="M149.213 4.47043V28.6921H154.333V18.7758H156.527V28.6921H161.891V18.8571L158.965 16.4187L161.403 14.1428V7.9655L158.234 4.47043H149.213ZM154.251 9.18471H156.527V14.2241H154.251V9.18471Z" fill="#FCC139"/>
</svg>
