<svg width="328" height="58" viewBox="0 0 328 58" fill="none" xmlns="http://www.w3.org/2000/svg">
<g filter="url(#filter0_i_124_80)">
<path fill-rule="evenodd" clip-rule="evenodd" d="M71.0845 14V44.1429L78.1317 50.2857H88.2429L94.9836 44.1429V14L88.0897 7.85715H78.2849L71.0845 14ZM81.0425 16H85.0257V42.2857H81.0425V16Z" fill="#FCC139"/>
<path d="M49.7898 50.4286V7.85715H59.5946V42.4286H68.7865V50.4286H49.7898ZM98.5072 14L105.708 7.85715H115.819L122.406 14V24.2857H112.448V16H108.465V42.2857H112.448V32.1429H122.406V44.1429L115.819 50.2857H105.554L98.5072 44.1429V14ZM125.777 50.2857V7.71429H135.581V24.8572H135.735L142.016 7.85715H151.974L143.701 27V27.4286L153.506 50.2857H143.701L135.735 31.7143H135.428V50.2857H125.777Z" fill="#FCC139"/>
<path fill-rule="evenodd" clip-rule="evenodd" d="M22.8267 7.85715L23.1331 50.4286H40.5213L47.4918 44.5714V33.0714L41.8235 29.0714L46.496 24.8571V13.7857L40.5213 7.85715H22.8267ZM32.7847 16.5714V24.8571H37.0743V16.5714H32.7847ZM32.7847 33.2857V42.4286H37.0743V33.2857H32.7847ZM155.344 7.85715L155.651 50.4286H173.039L180.009 44.5714V33.0714L174.341 29.0714L179.014 24.8571V13.7857L173.039 7.85715H155.344ZM165.302 16.5714V24.8571H169.592V16.5714H165.302ZM165.302 33.2857V42.4286H169.592V33.2857H165.302Z" fill="#FCC139"/>
<path d="M182.767 44.1429V8H192.572V42.4286H196.708V8H206.666V44.1429L199.925 50.4286H189.967L182.767 44.1429ZM210.19 14.4286L217.084 8H227.195L233.782 14.4286V21.8571H223.978V16.4286H219.994V24.8571L227.348 25.5714L233.782 31.4286V44.2857L227.195 50.4286H217.084L210.19 44.2857V36.8571H219.841V42.2857H223.824V33.7143L216.471 33.1429L210.19 27.2857V14.4286ZM235.774 16.1429V7.85715H257.069V16.1429H251.4V50.4286H241.289V16.1429H235.774ZM259.52 50.4286V7.85715H278.21V16.4286H269.171V24.2857H276.372V32H269.478V42.5714H278.21V50.4286H259.52Z" fill="#FCC139"/>
<path fill-rule="evenodd" clip-rule="evenodd" d="M281.274 7.85715V50.4286H290.926V33H295.062V50.4286H305.173V33.1429L299.658 28.8571L304.254 24.8571V14L298.279 7.85715H281.274ZM290.773 16.1429H295.062V25H290.773V16.1429Z" fill="#FCC139"/>
</g>
<defs>
<filter id="filter0_i_124_80" x="0" y="0" width="328" height="62" filterUnits="userSpaceOnUse" color-interpolation-filters="sRGB">
<feFlood flood-opacity="0" result="BackgroundImageFix"/>
<feBlend mode="normal" in="SourceGraphic" in2="BackgroundImageFix" result="shape"/>
<feColorMatrix in="SourceAlpha" type="matrix" values="0 0 0 0 0 0 0 0 0 0 0 0 0 0 0 0 0 0 127 0" result="hardAlpha"/>
<feOffset dy="4"/>
<feGaussianBlur stdDeviation="2"/>
<feComposite in2="hardAlpha" operator="arithmetic" k2="-1" k3="1"/>
<feColorMatrix type="matrix" values="0 0 0 0 0 0 0 0 0 0 0 0 0 0 0 0 0 0 0.25 0"/>
<feBlend mode="normal" in2="shape" result="effect1_innerShadow_124_80"/>
</filter>
</defs>
</svg>
